<mxfile host="Electron" agent="Mozilla/5.0 (X11; Linux x86_64) AppleWebKit/537.36 (KHTML, like Gecko) draw.io/28.2.5 Chrome/138.0.7204.251 Electron/37.5.1 Safari/537.36" version="28.2.5">
  <diagram name="Page-1" id="uAIcME4Ne36iJrCbp-_7">
    <mxGraphModel dx="607" dy="682" grid="1" gridSize="10" guides="1" tooltips="1" connect="1" arrows="1" fold="1" page="1" pageScale="1" pageWidth="850" pageHeight="1100" math="0" shadow="0">
      <root>
        <mxCell id="0" />
        <mxCell id="1" parent="0" />
        <mxCell id="EnJWxTvgU9lgToG47upL-20" value=":Interface" style="shape=umlLifeline;perimeter=lifelinePerimeter;whiteSpace=wrap;html=1;container=1;dropTarget=0;collapsible=0;recursiveResize=0;outlineConnect=0;portConstraint=eastwest;newEdgeStyle={&quot;curved&quot;:0,&quot;rounded&quot;:0};" vertex="1" parent="1">
          <mxGeometry x="130" y="70" width="100" height="670" as="geometry" />
        </mxCell>
        <mxCell id="EnJWxTvgU9lgToG47upL-22" value="" style="html=1;points=[[0,0,0,0,5],[0,1,0,0,-5],[1,0,0,0,5],[1,1,0,0,-5]];perimeter=orthogonalPerimeter;outlineConnect=0;targetShapes=umlLifeline;portConstraint=eastwest;newEdgeStyle={&quot;curved&quot;:0,&quot;rounded&quot;:0};" vertex="1" parent="EnJWxTvgU9lgToG47upL-20">
          <mxGeometry x="45" y="70" width="10" height="580" as="geometry" />
        </mxCell>
        <mxCell id="EnJWxTvgU9lgToG47upL-21" value=":Cell" style="shape=umlLifeline;perimeter=lifelinePerimeter;whiteSpace=wrap;html=1;container=1;dropTarget=0;collapsible=0;recursiveResize=0;outlineConnect=0;portConstraint=eastwest;newEdgeStyle={&quot;curved&quot;:0,&quot;rounded&quot;:0};" vertex="1" parent="1">
          <mxGeometry x="590" y="60" width="100" height="680" as="geometry" />
        </mxCell>
        <mxCell id="EnJWxTvgU9lgToG47upL-23" value="" style="html=1;points=[[0,0,0,0,5],[0,1,0,0,-5],[1,0,0,0,5],[1,1,0,0,-5]];perimeter=orthogonalPerimeter;outlineConnect=0;targetShapes=umlLifeline;portConstraint=eastwest;newEdgeStyle={&quot;curved&quot;:0,&quot;rounded&quot;:0};" vertex="1" parent="EnJWxTvgU9lgToG47upL-21">
          <mxGeometry x="45" y="85" width="10" height="575" as="geometry" />
        </mxCell>
        <mxCell id="EnJWxTvgU9lgToG47upL-24" value="revealCell()" style="html=1;verticalAlign=bottom;endArrow=block;curved=0;rounded=0;" edge="1" parent="1" source="EnJWxTvgU9lgToG47upL-20" target="EnJWxTvgU9lgToG47upL-21">
          <mxGeometry width="80" relative="1" as="geometry">
            <mxPoint x="240" y="170" as="sourcePoint" />
            <mxPoint x="520" y="390" as="targetPoint" />
            <Array as="points">
              <mxPoint x="420" y="160" />
            </Array>
          </mxGeometry>
        </mxCell>
        <mxCell id="EnJWxTvgU9lgToG47upL-25" value="alt" style="shape=umlFrame;whiteSpace=wrap;html=1;pointerEvents=0;" vertex="1" parent="1">
          <mxGeometry x="30" y="170" width="810" height="595" as="geometry" />
        </mxCell>
        <mxCell id="EnJWxTvgU9lgToG47upL-31" value="LoseMsg" style="html=1;verticalAlign=bottom;endArrow=open;dashed=1;endSize=8;curved=0;rounded=0;" edge="1" parent="1">
          <mxGeometry relative="1" as="geometry">
            <mxPoint x="179.32352941176464" y="205" as="targetPoint" />
            <mxPoint x="635" y="205" as="sourcePoint" />
          </mxGeometry>
        </mxCell>
        <mxCell id="EnJWxTvgU9lgToG47upL-32" value="[isMine]" style="text;html=1;align=center;verticalAlign=middle;resizable=0;points=[];autosize=1;strokeColor=none;fillColor=none;" vertex="1" parent="1">
          <mxGeometry x="570" y="170" width="60" height="30" as="geometry" />
        </mxCell>
        <mxCell id="EnJWxTvgU9lgToG47upL-33" value="" style="endArrow=none;dashed=1;endFill=0;endSize=12;html=1;rounded=0;entryX=1;entryY=0.151;entryDx=0;entryDy=0;entryPerimeter=0;exitX=0.001;exitY=0.15;exitDx=0;exitDy=0;exitPerimeter=0;" edge="1" parent="1" source="EnJWxTvgU9lgToG47upL-25" target="EnJWxTvgU9lgToG47upL-25">
          <mxGeometry width="160" relative="1" as="geometry">
            <mxPoint x="70" y="260.08" as="sourcePoint" />
            <mxPoint x="703.1499999999999" y="260.00000000000006" as="targetPoint" />
          </mxGeometry>
        </mxCell>
        <mxCell id="EnJWxTvgU9lgToG47upL-34" value="[isNumbered]" style="text;html=1;align=center;verticalAlign=middle;resizable=0;points=[];autosize=1;strokeColor=none;fillColor=none;" vertex="1" parent="1">
          <mxGeometry x="550" y="260" width="90" height="30" as="geometry" />
        </mxCell>
        <mxCell id="EnJWxTvgU9lgToG47upL-36" value="cellNumber" style="html=1;verticalAlign=bottom;endArrow=open;dashed=1;endSize=8;curved=0;rounded=0;" edge="1" parent="1">
          <mxGeometry relative="1" as="geometry">
            <mxPoint x="180" y="310" as="targetPoint" />
            <mxPoint x="635.6764705882354" y="310" as="sourcePoint" />
          </mxGeometry>
        </mxCell>
        <mxCell id="EnJWxTvgU9lgToG47upL-38" value="revealNumber()" style="html=1;align=left;spacingLeft=2;endArrow=block;rounded=0;edgeStyle=orthogonalEdgeStyle;curved=0;rounded=0;" edge="1" parent="1">
          <mxGeometry relative="1" as="geometry">
            <mxPoint x="650" y="280" as="sourcePoint" />
            <Array as="points">
              <mxPoint x="680" y="310" />
            </Array>
            <mxPoint x="655" y="310" as="targetPoint" />
          </mxGeometry>
        </mxCell>
        <mxCell id="EnJWxTvgU9lgToG47upL-39" value="checWin()" style="html=1;align=left;spacingLeft=2;endArrow=block;rounded=0;edgeStyle=orthogonalEdgeStyle;curved=0;rounded=0;" edge="1" parent="1">
          <mxGeometry relative="1" as="geometry">
            <mxPoint x="180" y="330" as="sourcePoint" />
            <Array as="points">
              <mxPoint x="210" y="360" />
            </Array>
            <mxPoint x="185" y="360" as="targetPoint" />
          </mxGeometry>
        </mxCell>
        <mxCell id="EnJWxTvgU9lgToG47upL-41" value="opt" style="shape=umlFrame;whiteSpace=wrap;html=1;pointerEvents=0;" vertex="1" parent="1">
          <mxGeometry x="100" y="420" width="570" height="80" as="geometry" />
        </mxCell>
        <mxCell id="EnJWxTvgU9lgToG47upL-42" value="[hasWon]" style="text;html=1;align=center;verticalAlign=middle;resizable=0;points=[];autosize=1;strokeColor=none;fillColor=none;" vertex="1" parent="1">
          <mxGeometry x="570" y="420" width="70" height="30" as="geometry" />
        </mxCell>
        <mxCell id="EnJWxTvgU9lgToG47upL-43" value="hasWon" style="html=1;align=left;spacingLeft=2;endArrow=block;rounded=0;edgeStyle=orthogonalEdgeStyle;curved=0;rounded=0;dashed=1;dashPattern=8 8;" edge="1" parent="1">
          <mxGeometry relative="1" as="geometry">
            <mxPoint x="180" y="382.5" as="sourcePoint" />
            <Array as="points">
              <mxPoint x="210" y="412.5" />
            </Array>
            <mxPoint x="185" y="412.5" as="targetPoint" />
          </mxGeometry>
        </mxCell>
        <mxCell id="EnJWxTvgU9lgToG47upL-44" value="displayLoss()" style="html=1;align=left;spacingLeft=2;endArrow=block;rounded=0;edgeStyle=orthogonalEdgeStyle;curved=0;rounded=0;" edge="1" parent="1">
          <mxGeometry relative="1" as="geometry">
            <mxPoint x="180" y="220" as="sourcePoint" />
            <Array as="points">
              <mxPoint x="210" y="250" />
            </Array>
            <mxPoint x="185" y="250" as="targetPoint" />
          </mxGeometry>
        </mxCell>
        <mxCell id="EnJWxTvgU9lgToG47upL-45" value="displayWin()" style="html=1;align=left;spacingLeft=2;endArrow=block;rounded=0;edgeStyle=orthogonalEdgeStyle;curved=0;rounded=0;" edge="1" parent="1">
          <mxGeometry relative="1" as="geometry">
            <mxPoint x="180" y="450" as="sourcePoint" />
            <Array as="points">
              <mxPoint x="210" y="480" />
            </Array>
            <mxPoint x="185" y="480" as="targetPoint" />
          </mxGeometry>
        </mxCell>
        <mxCell id="EnJWxTvgU9lgToG47upL-47" value="" style="endArrow=none;dashed=1;endFill=0;endSize=12;html=1;rounded=0;entryX=1;entryY=0.605;entryDx=0;entryDy=0;entryPerimeter=0;exitX=0.004;exitY=0.604;exitDx=0;exitDy=0;exitPerimeter=0;" edge="1" parent="1" source="EnJWxTvgU9lgToG47upL-25" target="EnJWxTvgU9lgToG47upL-25">
          <mxGeometry width="160" relative="1" as="geometry">
            <mxPoint x="70" y="530.0799999999999" as="sourcePoint" />
            <mxPoint x="703.1499999999999" y="530" as="targetPoint" />
          </mxGeometry>
        </mxCell>
        <mxCell id="EnJWxTvgU9lgToG47upL-48" value="[isEmpty]" style="text;html=1;align=center;verticalAlign=middle;resizable=0;points=[];autosize=1;strokeColor=none;fillColor=none;" vertex="1" parent="1">
          <mxGeometry x="560" y="535" width="70" height="30" as="geometry" />
        </mxCell>
        <mxCell id="EnJWxTvgU9lgToG47upL-52" value="revealCell()" style="html=1;align=left;spacingLeft=2;endArrow=block;rounded=0;edgeStyle=orthogonalEdgeStyle;curved=0;rounded=0;" edge="1" parent="1">
          <mxGeometry relative="1" as="geometry">
            <mxPoint x="640" y="582.5" as="sourcePoint" />
            <Array as="points">
              <mxPoint x="670" y="612.5" />
            </Array>
            <mxPoint x="645" y="612.5" as="targetPoint" />
          </mxGeometry>
        </mxCell>
        <mxCell id="EnJWxTvgU9lgToG47upL-53" value="for" style="shape=umlFrame;whiteSpace=wrap;html=1;pointerEvents=0;" vertex="1" parent="1">
          <mxGeometry x="100" y="570" width="640" height="140" as="geometry" />
        </mxCell>
        <mxCell id="EnJWxTvgU9lgToG47upL-54" value="allEmptyNeighbours" style="text;html=1;align=center;verticalAlign=middle;resizable=0;points=[];autosize=1;strokeColor=none;fillColor=none;" vertex="1" parent="1">
          <mxGeometry x="200" y="570" width="130" height="30" as="geometry" />
        </mxCell>
      </root>
    </mxGraphModel>
  </diagram>
</mxfile>
